<mxfile host="app.diagrams.net" modified="2022-11-03T06:23:25.456Z" agent="5.0 (Macintosh; Intel Mac OS X 10_15_7) AppleWebKit/537.36 (KHTML, like Gecko) Chrome/107.0.0.0 Safari/537.36" etag="X2_uHY2-glN0bsQsv25l" version="20.5.1" type="github">
  <diagram id="3s4EllFq1a2cW9zR0A2v" name="Page-1">
    <mxGraphModel dx="1278" dy="714" grid="1" gridSize="10" guides="1" tooltips="1" connect="1" arrows="1" fold="1" page="1" pageScale="1" pageWidth="850" pageHeight="1100" math="0" shadow="0">
      <root>
        <mxCell id="0" />
        <mxCell id="1" parent="0" />
        <mxCell id="ADY6lHcSCv6kN29Xq9wK-1" value="" style="rounded=1;whiteSpace=wrap;html=1;fillColor=#dae8fc;strokeColor=#6c8ebf;glass=1;shadow=1;sketch=0;" parent="1" vertex="1">
          <mxGeometry x="120" y="120" width="300" height="270" as="geometry" />
        </mxCell>
        <mxCell id="ADY6lHcSCv6kN29Xq9wK-2" value="" style="rounded=1;whiteSpace=wrap;html=1;fillColor=#d5e8d4;strokeColor=#82b366;glass=1;shadow=1;sketch=0;" parent="1" vertex="1">
          <mxGeometry x="130" y="200" width="280" height="220" as="geometry" />
        </mxCell>
        <mxCell id="ADY6lHcSCv6kN29Xq9wK-3" value="" style="rounded=1;whiteSpace=wrap;html=1;fillColor=#ffe6cc;strokeColor=#d79b00;glass=1;shadow=1;sketch=0;" parent="1" vertex="1">
          <mxGeometry x="140" y="280" width="260" height="170" as="geometry" />
        </mxCell>
        <mxCell id="ADY6lHcSCv6kN29Xq9wK-4" value="" style="rounded=1;whiteSpace=wrap;html=1;fillColor=#f8cecc;strokeColor=#b85450;glass=1;shadow=1;sketch=0;" parent="1" vertex="1">
          <mxGeometry x="150" y="350" width="240" height="130" as="geometry" />
        </mxCell>
        <mxCell id="ADY6lHcSCv6kN29Xq9wK-5" value="" style="rounded=1;whiteSpace=wrap;html=1;fillColor=#e1d5e7;strokeColor=#9673a6;glass=1;shadow=1;sketch=0;" parent="1" vertex="1">
          <mxGeometry x="160" y="420" width="220" height="80" as="geometry" />
        </mxCell>
        <mxCell id="ADY6lHcSCv6kN29Xq9wK-6" value="&lt;font style=&quot;font-size: 16px;&quot;&gt;定向 (100W+)&lt;/font&gt;" style="text;html=1;strokeColor=none;fillColor=none;align=center;verticalAlign=middle;whiteSpace=wrap;rounded=0;shadow=1;glass=1;sketch=0;" parent="1" vertex="1">
          <mxGeometry x="210" y="150" width="120" height="30" as="geometry" />
        </mxCell>
        <mxCell id="ADY6lHcSCv6kN29Xq9wK-7" value="&lt;font style=&quot;font-size: 16px;&quot;&gt;召回 (10W+)&lt;/font&gt;" style="text;html=1;strokeColor=none;fillColor=none;align=center;verticalAlign=middle;whiteSpace=wrap;rounded=0;shadow=1;glass=1;sketch=0;" parent="1" vertex="1">
          <mxGeometry x="210" y="230" width="120" height="30" as="geometry" />
        </mxCell>
        <mxCell id="ADY6lHcSCv6kN29Xq9wK-8" value="&lt;font style=&quot;font-size: 16px;&quot;&gt;粗排 (2000)&lt;/font&gt;" style="text;html=1;strokeColor=none;fillColor=none;align=center;verticalAlign=middle;whiteSpace=wrap;rounded=0;shadow=1;glass=1;sketch=0;" parent="1" vertex="1">
          <mxGeometry x="210" y="305" width="120" height="30" as="geometry" />
        </mxCell>
        <mxCell id="ADY6lHcSCv6kN29Xq9wK-9" value="&lt;font style=&quot;font-size: 16px;&quot;&gt;精排 (200)&lt;/font&gt;" style="text;html=1;strokeColor=none;fillColor=none;align=center;verticalAlign=middle;whiteSpace=wrap;rounded=0;shadow=1;glass=1;sketch=0;" parent="1" vertex="1">
          <mxGeometry x="210" y="370" width="120" height="30" as="geometry" />
        </mxCell>
        <mxCell id="ADY6lHcSCv6kN29Xq9wK-10" value="&lt;font style=&quot;font-size: 16px;&quot;&gt;下发 (1~5)&lt;/font&gt;" style="text;html=1;strokeColor=none;fillColor=none;align=center;verticalAlign=middle;whiteSpace=wrap;rounded=0;shadow=1;glass=1;sketch=0;" parent="1" vertex="1">
          <mxGeometry x="210" y="440" width="120" height="30" as="geometry" />
        </mxCell>
      </root>
    </mxGraphModel>
  </diagram>
</mxfile>
